Coordinates
version=1
nRows=9
nColumns=36
inDegrees=yes

Units are S.I. units (second, meters, Newtons, ...)
If the header above contains a line with 'inDegrees', this indicates whether rotational values are in degrees (yes) or radians (no).

endheader
time	pelvis_tilt	pelvis_list	pelvis_rotation	pelvis_tx	pelvis_ty	pelvis_tz	hip_flexion_r	hip_adduction_r	hip_rotation_r	knee_angle_r	knee_angle_r_beta	ankle_angle_r	subtalar_angle_r	mtp_angle_r	hip_flexion_l	hip_adduction_l	hip_rotation_l	knee_angle_l	knee_angle_l_beta	ankle_angle_l	subtalar_angle_l	mtp_angle_l	lumbar_extension	lumbar_bending	lumbar_rotation	arm_flex_r	arm_add_r	arm_rot_r	elbow_flex_r	pro_sup_r	arm_flex_l	arm_add_l	arm_rot_l	elbow_flex_l	pro_sup_l
      3.85833330	     -1.11452632	      0.54875265	     -4.75869694	      0.50204015	      1.02181757	     -0.24151871	      5.08841043	     -6.48651471	      2.78363280	     10.02450055	      0.17496054	      9.67963250	     -9.90994498	     -7.49999987	      1.37219971	     -6.16588994	     -2.46077334	      3.37588644	      0.05892033	      2.57061081	     -9.02986475	     -7.49999987	     -4.52290077	      3.03870852	      0.25219991	     16.60129001	    -12.27825998	     16.25724348	    135.48828952	     91.08009889	     12.05679246	     -9.94805305	      2.65461292	    134.44770252	     70.83708441
      3.86250000	     -1.02140713	      0.52256183	     -4.71767076	      0.50195353	      1.01825566	     -0.24173658	      4.99869308	     -6.47151137	      2.81296134	     10.04439850	      0.17530783	      9.68895669	     -9.88513192	     -7.49999987	      1.29844262	     -6.17160140	     -2.44651490	      3.37889352	      0.05897282	      2.62732338	     -8.85280705	     -7.49999987	     -4.61749034	      3.02840683	      0.15326648	     15.81638915	    -12.07214377	     15.36870762	    135.46829525	     90.39923534	     11.77150924	     -9.63484694	      2.35188801	    134.41586583	     70.62135797
      3.86666670	     -1.08173790	      0.56236848	     -4.73351009	      0.50205482	      1.02133941	     -0.24167667	      5.07846431	     -6.51961268	      2.84316710	     10.02539977	      0.17497623	      9.74568145	     -9.72357213	     -7.49999987	      1.36080941	     -6.12313456	     -2.48115007	      3.33837660	      0.05826566	      2.52070384	     -8.86435005	     -7.49999987	     -4.53932861	      3.00684337	      0.21243447	     15.19718313	    -12.06622667	     14.54996890	    135.30766528	     92.56821337	     11.49288462	     -9.34886858	      2.20798990	    134.18653186	     71.21200937
      3.87083330	     -1.04851971	      0.53343858	     -4.78644725	      0.50185183	      1.02024211	     -0.24171303	      4.99015204	     -6.51027115	      2.88540403	      9.89695013	      0.17273437	      9.85641700	     -9.55129042	     -7.49999987	      1.31484656	     -6.12978235	     -2.65151924	      3.28379798	      0.05731309	      2.65254790	     -8.59795935	     -7.49999987	     -4.57319315	      3.05947379	      0.18068678	     14.83550331	    -11.96334200	     14.09681158	    135.09545513	     90.60330889	     11.18006867	     -9.21661839	      1.99607426	    134.16900801	     70.26111721
      3.87500000	     -0.97474527	      0.53716014	     -4.81461512	      0.50192874	      1.02448947	     -0.24185168	      4.79237210	     -6.51901867	      3.04551550	      9.65157180	      0.16845171	      9.78238335	     -9.44961289	     -7.49999987	      1.18663630	     -6.09171479	     -2.67879943	      3.16084156	      0.05516709	      2.60989646	     -8.38354288	     -7.49999987	     -4.68877205	      3.10735261	      0.20002916	     14.43458120	    -11.81676169	     13.76945376	    134.81909321	     88.38146388	     10.88645819	     -9.12856923	      1.87324813	    134.04046779	     69.26245289
      3.87916670	     -0.91028930	      0.55205807	     -4.81207833	      0.50168266	      1.02320132	     -0.24201560	      4.59241127	     -6.53154429	      3.24394973	      9.40842018	      0.16420791	      9.79849550	     -9.35446818	     -7.49999987	      1.09333052	     -6.03979404	     -2.61761862	      3.05950780	      0.05339848	      2.60976990	     -8.17740161	     -7.49999987	     -4.76178466	      3.08203937	      0.11032569	     14.13893051	    -11.66506264	     13.45888633	    134.54239744	     87.31140350	     10.71503257	     -9.10898601	      1.81333213	    133.99156320	     68.86717040
      3.88333330	     -0.86038592	      0.55348628	     -4.82663847	      0.50177011	      1.02367787	     -0.24186995	      4.46037707	     -6.52137071	      3.42498561	      9.23479403	      0.16117756	      9.75082043	     -9.40094482	     -7.49999987	      0.99218782	     -6.02760830	     -2.53955001	      2.98453101	      0.05208989	      2.59436993	     -8.08575951	     -7.49999987	     -4.85152354	      3.07186253	     -0.01831916	     13.68839313	    -11.43969800	     13.21171787	    134.49391562	     86.53183568	     10.60361327	     -9.02640578	      1.72785662	    134.00721379	     68.54337582
      3.88750000	     -0.82643491	      0.59297198	     -4.81642661	      0.50116565	      1.02823151	     -0.24228373	      4.34238376	     -6.56123893	      3.56004237	      9.05433892	      0.15802803	      9.66470264	     -9.28049390	     -7.49999987	      0.94743449	     -5.96710380	     -2.47791140	      2.93798134	      0.05127745	      2.49310554	     -7.96758597	     -7.49999987	     -4.93316574	      2.98692491	     -0.12034390	     13.25023951	    -11.37180960	     13.08856075	    134.25299955	     86.66987714	     10.36365968	     -9.05643715	      1.66175695	    133.90232519	     68.61099309
      3.89166670	     -0.72127584	      0.62040190	     -4.81166957	      0.50161403	      1.02244836	     -0.24191831	      4.14685277	     -6.60889353	      3.54944831	      8.89672974	      0.15527723	      9.56864589	     -9.46310956	     -7.49999987	      0.80513910	     -5.91399682	     -2.49698520	      2.88242418	      0.05030779	      2.59568683	     -7.98680652	     -7.49999987	     -5.04067622	      2.88371657	     -0.23773951	     12.95724514	    -11.09964643	     12.31122305	    133.92209449	     86.42124319	     10.23614520	     -9.04995109	      1.63435311	    134.17132511	     68.63867011
